<svg width="10" height="11" viewBox="0 0 10 11" fill="none" xmlns="http://www.w3.org/2000/svg">
<path d="M9.5 4.19032C9.56567 4.19033 9.63069 4.1768 9.69136 4.15048C9.75203 4.12416 9.80716 4.08558 9.85359 4.03693C9.90002 3.98829 9.93685 3.93054 9.96197 3.86697C9.9871 3.80341 10 3.73529 10 3.6665V2.09503C10 1.98512 9.96705 1.87799 9.9057 1.78883C9.84435 1.69967 9.75775 1.63302 9.65821 1.59832L5.15821 0.026856C5.0555 -0.00895201 4.9445 -0.00895201 4.84179 0.026856L0.341795 1.59832C0.242247 1.63302 0.155654 1.69967 0.0943029 1.78883C0.0329516 1.87799 -4.30658e-05 1.98512 4.21871e-08 2.09503V3.6665C-1.70376e-05 3.73529 0.0129042 3.80341 0.0380255 3.86697C0.0631468 3.93054 0.0999759 3.98829 0.146409 4.03693C0.192841 4.08558 0.247968 4.12416 0.308638 4.15048C0.369309 4.1768 0.434334 4.19033 0.5 4.19032C0.776142 4.19032 1 4.41417 1 4.69032V7.01686C1 7.57975 0.59251 8.05895 0.276634 8.52485C0.0975847 8.78894 0.000951237 9.10461 4.21871e-08 9.42853V10.4762C-1.70376e-05 10.545 0.0129042 10.6131 0.0380255 10.6767C0.0631468 10.7402 0.0999759 10.798 0.146409 10.8466C0.192841 10.8953 0.247968 10.9338 0.308638 10.9602C0.369309 10.9865 0.434334 11 0.5 11H9.5C9.56567 11 9.63069 10.9865 9.69136 10.9602C9.75203 10.9338 9.80716 10.8953 9.85359 10.8466C9.90002 10.798 9.93685 10.7402 9.96197 10.6767C9.9871 10.6131 10 10.545 10 10.4762V9.42853C9.99905 9.10461 9.90242 8.78894 9.72337 8.52485C9.40749 8.05895 9 7.57975 9 7.01686V4.69032C9 4.41417 9.22386 4.19032 9.5 4.19032ZM9 9.42853C9 9.71783 8.76548 9.95236 8.47618 9.95236H1.52382C1.23452 9.95236 1 9.71783 1 9.42853C1.00013 9.28965 1.05285 9.1565 1.14659 9.05829C1.24033 8.96008 1.36743 8.90485 1.5 8.90471H8.5C8.63257 8.90485 8.75967 8.96008 8.85341 9.05829C8.94715 9.1565 8.99987 9.28965 9 9.42853ZM2.5 7.85707C2.22386 7.85707 2 7.63321 2 7.35707V4.69032C2 4.41417 2.22386 4.19032 2.5 4.19032C2.77614 4.19032 3 4.41417 3 4.69032V7.35707C3 7.63321 2.77614 7.85707 2.5 7.85707ZM5 7.85707C4.44772 7.85707 4 7.40935 4 6.85707V5.19032C4 4.63803 4.44772 4.19032 5 4.19032C5.55228 4.19032 6 4.63803 6 5.19032V6.85707C6 7.40936 5.55228 7.85707 5 7.85707ZM7.5 7.85707C7.22386 7.85707 7 7.63321 7 7.35707V4.69032C7 4.41417 7.22386 4.19032 7.5 4.19032C7.77614 4.19032 8 4.41417 8 4.69032V7.35707C8 7.63321 7.77614 7.85707 7.5 7.85707ZM1.39189 3.14267C1.17546 3.14267 1 2.96722 1 2.75078C1 2.58416 1.10537 2.43575 1.26267 2.38081L3.68109 1.53615C4.53507 1.2379 5.46493 1.2379 6.31891 1.53615L8.73733 2.38081C8.89463 2.43575 9 2.58416 9 2.75078C9 2.96722 8.82454 3.14267 8.60811 3.14267H1.39189Z" fill="#333333"/>
</svg>
