<svg width="10" height="10" viewBox="0 0 10 10" fill="none" xmlns="http://www.w3.org/2000/svg">
<path d="M7.68149 10H7.66676C5.64558 9.95024 3.71679 9.14315 2.26244 7.73858C0.857444 6.28546 0.0499395 4.35728 5.82808e-05 2.33654C-0.00291812 2.05347 0.108218 1.78111 0.308426 1.58099L1.73632 0.154051C1.94177 -0.0513504 2.27481 -0.0513504 2.48026 0.154051L4.58474 2.25867C4.79013 2.46414 4.79013 2.79719 4.58474 3.00266C4.06519 3.52127 3.82691 4.30285 4.21818 4.92397C4.3268 5.09639 4.44893 5.26064 4.58369 5.41508C4.7371 5.54925 4.90023 5.6709 5.07148 5.77919C5.69311 6.17227 6.47651 5.93471 6.99754 5.41561C7.20299 5.21021 7.53602 5.21021 7.74147 5.41561L9.84596 7.52023C10.0513 7.72569 10.0513 8.05875 9.84596 8.26421L8.41807 9.69167C8.22337 9.8884 7.95827 9.99938 7.68149 10ZM2.10817 1.27148C2.10757 1.27089 2.10676 1.27055 2.10592 1.27055C2.10508 1.27055 2.10427 1.27089 2.10368 1.27149L1.58675 1.78947C1.24547 2.13146 1.04779 2.59995 1.1119 3.07882C1.30834 4.54593 1.96823 5.91974 3.00533 6.99407C4.15434 8.10296 5.64557 8.78063 7.22714 8.92173C7.5116 8.9471 7.78795 8.83292 7.98998 8.63107L8.04708 8.57404C8.42379 8.19768 8.42353 7.58703 8.0465 7.21099C7.67039 6.83587 7.06129 6.83642 6.68555 7.2119C6.58823 7.31032 6.45566 7.36581 6.31726 7.36607C6.2803 7.36608 6.24345 7.3622 6.2073 7.35449C5.33059 7.16054 4.51655 6.7497 3.83975 6.15959C3.24968 5.48275 2.83887 4.66866 2.64493 3.79189C2.60835 3.61761 2.66239 3.43665 2.78856 3.31098C3.16399 2.93525 3.16375 2.32632 2.78804 1.95087L2.10817 1.27148Z" fill="#333333"/>
</svg>
